HIERARCHY
ROOT Hips
{
	OFFSET 0.00000 93.02000 0.00000
	CHANNELS 6 Xposition Yposition Zposition Yrotation Xrotation Zrotation
	JOINT RightUpLeg
	{
		OFFSET -9.25000 -1.59000 0.00000
		CHANNELS 6 Xposition Yposition Zposition Yrotation Xrotation Zrotation
		JOINT RightLeg
		{
			OFFSET 0.00000 -41.87000 0.00000
			CHANNELS 6 Xposition Yposition Zposition Yrotation Xrotation Zrotation
			JOINT RightFoot
			{
				OFFSET 0.00000 -41.87000 0.00000
				CHANNELS 6 Xposition Yposition Zposition Yrotation Xrotation Zrotation
				End site
				{
					OFFSET 0.00000 -7.69000 17.50000
				}
			}
		}
	}
	JOINT LeftUpLeg
	{
		OFFSET 9.25000 -1.59000 0.00000
		CHANNELS 6 Xposition Yposition Zposition Yrotation Xrotation Zrotation
		JOINT LeftLeg
		{
			OFFSET 0.00000 -41.87000 0.00000
			CHANNELS 6 Xposition Yposition Zposition Yrotation Xrotation Zrotation
			JOINT LeftFoot
			{
				OFFSET 0.00000 -41.87000 0.00000
				CHANNELS 6 Xposition Yposition Zposition Yrotation Xrotation Zrotation
				End site
				{
					OFFSET 0.00000 -7.69000 17.50000
				}
			}
		}
	}
	JOINT Spine
	{
		OFFSET 0.00000 14.30700 0.00000
		CHANNELS 6 Xposition Yposition Zposition Yrotation Xrotation Zrotation
		JOINT Spine1
		{
			OFFSET 0.00000 9.71800 0.00000
			CHANNELS 6 Xposition Yposition Zposition Yrotation Xrotation Zrotation
			JOINT Spine2
			{
				OFFSET 0.00000 10.12000 0.00000
				CHANNELS 6 Xposition Yposition Zposition Yrotation Xrotation Zrotation
				JOINT Spine3
				{
					OFFSET 0.00000 9.71800 0.00000
					CHANNELS 6 Xposition Yposition Zposition Yrotation Xrotation Zrotation
					JOINT Neck
					{
						OFFSET 0.00000 10.38700 0.00000
						CHANNELS 6 Xposition Yposition Zposition Yrotation Xrotation Zrotation
						JOINT Head
						{
							OFFSET 0.00000 9.47000 0.00000
							CHANNELS 6 Xposition Yposition Zposition Yrotation Xrotation Zrotation
							End site
							{
								OFFSET 0.00000 15.95000 0.00000
							}
						}
					}
					JOINT RightShoulder
					{
						OFFSET -3.20000 6.92500 0.00000
						CHANNELS 6 Xposition Yposition Zposition Yrotation Xrotation Zrotation
						JOINT RightArm
						{
							OFFSET -12.80000 0.00000 0.00000
							CHANNELS 6 Xposition Yposition Zposition Yrotation Xrotation Zrotation
							JOINT RightForeArm
							{
								OFFSET -26.50000 0.00000 0.00000
								CHANNELS 6 Xposition Yposition Zposition Yrotation Xrotation Zrotation
								JOINT RightHand
								{
									OFFSET -26.00000 0.00000 0.00000
									CHANNELS 6 Xposition Yposition Zposition Yrotation Xrotation Zrotation
									JOINT RightHandThumb1
									{
										OFFSET -2.48900 0.19000 3.12100
										CHANNELS 6 Xposition Yposition Zposition Yrotation Xrotation Zrotation
										JOINT RightHandThumb2
										{
											OFFSET -3.68300 0.00000 0.00000
											CHANNELS 6 Xposition Yposition Zposition Yrotation Xrotation Zrotation
											JOINT RightHandThumb3
											{
												OFFSET -2.55800 0.00000 0.00000
												CHANNELS 6 Xposition Yposition Zposition Yrotation Xrotation Zrotation
												End site
												{
													OFFSET -2.19400 0.00000 0.00000
												}
											}
										}
									}
									JOINT RightInHandIndex
									{
										OFFSET -3.22400 0.50800 1.97800
										CHANNELS 6 Xposition Yposition Zposition Yrotation Xrotation Zrotation
										JOINT RightHandIndex1
										{
											OFFSET -5.21700 -0.09100 0.99900
											CHANNELS 6 Xposition Yposition Zposition Yrotation Xrotation Zrotation
											JOINT RightHandIndex2
											{
												OFFSET -3.61900 0.00000 0.00000
												CHANNELS 6 Xposition Yposition Zposition Yrotation Xrotation Zrotation
												JOINT RightHandIndex3
												{
													OFFSET -2.05200 0.00000 0.00000
													CHANNELS 6 Xposition Yposition Zposition Yrotation Xrotation Zrotation
													End site
													{
														OFFSET -1.80500 0.00000 0.00000
													}
												}
											}
										}
									}
									JOINT RightInHandMiddle
									{
										OFFSET -3.38200 0.51700 0.75700
										CHANNELS 6 Xposition Yposition Zposition Yrotation Xrotation Zrotation
										JOINT RightHandMiddle1
										{
											OFFSET -5.17400 -0.08400 0.31400
											CHANNELS 6 Xposition Yposition Zposition Yrotation Xrotation Zrotation
											JOINT RightHandMiddle2
											{
												OFFSET -3.94900 0.00000 0.00000
												CHANNELS 6 Xposition Yposition Zposition Yrotation Xrotation Zrotation
												JOINT RightHandMiddle3
												{
													OFFSET -2.47600 0.00000 0.00000
													CHANNELS 6 Xposition Yposition Zposition Yrotation Xrotation Zrotation
													End site
													{
														OFFSET -1.97500 0.00000 0.00000
													}
												}
											}
										}
									}
									JOINT RightInHandRing
									{
										OFFSET -3.36500 0.53800 -0.12900
										CHANNELS 6 Xposition Yposition Zposition Yrotation Xrotation Zrotation
										JOINT RightHandRing1
										{
											OFFSET -4.63500 -0.02200 -0.47900
											CHANNELS 6 Xposition Yposition Zposition Yrotation Xrotation Zrotation
											JOINT RightHandRing2
											{
												OFFSET -3.44200 0.00000 0.00000
												CHANNELS 6 Xposition Yposition Zposition Yrotation Xrotation Zrotation
												JOINT RightHandRing3
												{
													OFFSET -2.38800 0.00000 0.00000
													CHANNELS 6 Xposition Yposition Zposition Yrotation Xrotation Zrotation
													End site
													{
														OFFSET -1.85700 0.00000 0.00000
													}
												}
											}
										}
									}
									JOINT RightInHandPinky
									{
										OFFSET -3.16100 0.46900 -1.20200
										CHANNELS 6 Xposition Yposition Zposition Yrotation Xrotation Zrotation
										JOINT RightHandPinky1
										{
											OFFSET -4.14100 -0.02200 -1.09100
											CHANNELS 6 Xposition Yposition Zposition Yrotation Xrotation Zrotation
											JOINT RightHandPinky2
											{
												OFFSET -2.75700 0.00000 0.00000
												CHANNELS 6 Xposition Yposition Zposition Yrotation Xrotation Zrotation
												JOINT RightHandPinky3
												{
													OFFSET -1.74200 0.00000 0.00000
													CHANNELS 6 Xposition Yposition Zposition Yrotation Xrotation Zrotation
													End site
													{
														OFFSET -1.64500 0.00000 0.00000
													}
												}
											}
										}
									}
								}
							}
						}
					}
					JOINT LeftShoulder
					{
						OFFSET 3.20000 6.92500 0.00000
						CHANNELS 6 Xposition Yposition Zposition Yrotation Xrotation Zrotation
						JOINT LeftArm
						{
							OFFSET 12.80000 0.00000 0.00000
							CHANNELS 6 Xposition Yposition Zposition Yrotation Xrotation Zrotation
							JOINT LeftForeArm
							{
								OFFSET 26.50000 0.00000 0.00000
								CHANNELS 6 Xposition Yposition Zposition Yrotation Xrotation Zrotation
								JOINT LeftHand
								{
									OFFSET 26.00000 0.00000 0.00000
									CHANNELS 6 Xposition Yposition Zposition Yrotation Xrotation Zrotation
									JOINT LeftHandThumb1
									{
										OFFSET 2.48900 0.19000 3.12100
										CHANNELS 6 Xposition Yposition Zposition Yrotation Xrotation Zrotation
										JOINT LeftHandThumb2
										{
											OFFSET 3.68300 0.00000 0.00000
											CHANNELS 6 Xposition Yposition Zposition Yrotation Xrotation Zrotation
											JOINT LeftHandThumb3
											{
												OFFSET 2.55800 0.00000 0.00000
												CHANNELS 6 Xposition Yposition Zposition Yrotation Xrotation Zrotation
												End site
												{
													OFFSET 2.19400 0.00000 0.00000
												}
											}
										}
									}
									JOINT LeftInHandIndex
									{
										OFFSET 3.22400 0.50800 1.97800
										CHANNELS 6 Xposition Yposition Zposition Yrotation Xrotation Zrotation
										JOINT LeftHandIndex1
										{
											OFFSET 5.21700 -0.09100 0.99900
											CHANNELS 6 Xposition Yposition Zposition Yrotation Xrotation Zrotation
											JOINT LeftHandIndex2
											{
												OFFSET 3.61900 0.00000 0.00000
												CHANNELS 6 Xposition Yposition Zposition Yrotation Xrotation Zrotation
												JOINT LeftHandIndex3
												{
													OFFSET 2.05200 0.00000 0.00000
													CHANNELS 6 Xposition Yposition Zposition Yrotation Xrotation Zrotation
													End site
													{
														OFFSET 1.80500 0.00000 0.00000
													}
												}
											}
										}
									}
									JOINT LeftInHandMiddle
									{
										OFFSET 3.38200 0.51700 0.75700
										CHANNELS 6 Xposition Yposition Zposition Yrotation Xrotation Zrotation
										JOINT LeftHandMiddle1
										{
											OFFSET 5.17400 -0.08400 0.31400
											CHANNELS 6 Xposition Yposition Zposition Yrotation Xrotation Zrotation
											JOINT LeftHandMiddle2
											{
												OFFSET 3.94900 0.00000 0.00000
												CHANNELS 6 Xposition Yposition Zposition Yrotation Xrotation Zrotation
												JOINT LeftHandMiddle3
												{
													OFFSET 2.47600 0.00000 0.00000
													CHANNELS 6 Xposition Yposition Zposition Yrotation Xrotation Zrotation
													End site
													{
														OFFSET 1.97500 0.00000 0.00000
													}
												}
											}
										}
									}
									JOINT LeftInHandRing
									{
										OFFSET 3.36500 0.53800 -0.12900
										CHANNELS 6 Xposition Yposition Zposition Yrotation Xrotation Zrotation
										JOINT LeftHandRing1
										{
											OFFSET 4.63500 -0.02200 -0.47900
											CHANNELS 6 Xposition Yposition Zposition Yrotation Xrotation Zrotation
											JOINT LeftHandRing2
											{
												OFFSET 3.44200 0.00000 0.00000
												CHANNELS 6 Xposition Yposition Zposition Yrotation Xrotation Zrotation
												JOINT LeftHandRing3
												{
													OFFSET 2.38800 0.00000 0.00000
													CHANNELS 6 Xposition Yposition Zposition Yrotation Xrotation Zrotation
													End site
													{
														OFFSET 1.85700 0.00000 0.00000
													}
												}
											}
										}
									}
									JOINT LeftInHandPinky
									{
										OFFSET 3.16100 0.46900 -1.20200
										CHANNELS 6 Xposition Yposition Zposition Yrotation Xrotation Zrotation
										JOINT LeftHandPinky1
										{
											OFFSET 4.14100 -0.02200 -1.09100
											CHANNELS 6 Xposition Yposition Zposition Yrotation Xrotation Zrotation
											JOINT LeftHandPinky2
											{
												OFFSET 2.75700 0.00000 0.00000
												CHANNELS 6 Xposition Yposition Zposition Yrotation Xrotation Zrotation
												JOINT LeftHandPinky3
												{
													OFFSET 1.74200 0.00000 0.00000
													CHANNELS 6 Xposition Yposition Zposition Yrotation Xrotation Zrotation
													End site
													{
														OFFSET 1.64500 0.00000 0.00000
													}
												}
											}
										}
									}
								}
							}
						}
					}
				}
			}
		}
	}
}
MOTION
Frames: 4
Frame Time: 0.008401
-23.597399 95.077438 33.225327 -114.273964 2.332702 -8.526412 -9.249054 -1.597019 -0.012433 -0.545322 -6.526953 1.787679 0.011568 -41.849693 -0.099712 -4.252964 15.915166 -0.870238 0.718581 -42.710861 -1.550529 -34.857433 8.690128 1.575573 9.262976 -1.583221 0.016461 10.404611 -0.738168 4.420753 0.009656 -41.872253 -0.029886 -27.803783 -0.603873 -0.925209 0.286718 -41.227222 -0.384522 31.205273 -2.164634 3.714468 -0.008721 14.306781 0.026825 -16.157671 1.92751 5.63556 0.000138 9.71796 0.006865 -4.069473 0.557925 1.449471 0.001055 10.119953 0.007976 -6.547208 1.169404 2.342108 0.000236 9.718517 0.003484 1.836358 -0.563505 -0.302913 0.0025 10.389139 0.017194 2.366926 -0.541235 -0.375936 -0.01528 9.467436 0.02743 36.865593 -8.011937 -8.622187 -3.201886 6.88126 -0.016995 22.097153 -2.117912 -4.691926 -12.773837 -0.036907 -0.058314 -6.349515 0.140559 74.885742 -26.513428 -0.00129 -0.018136 108.676369 -0.305011 56.112595 -26.01325 -0.057199 0.019908 -1.175396 -12.597209 -3.114638 -2.489053 0.190105 3.120527 21.860001 -0.0 30.0 -3.682737 0.0 0.0 -10.0 -0.0 0.0 -2.558316 0.0 0.0 -10.0 -0.0 0.0 -3.223684 0.508421 1.978421 0.0 -0.0 0.0 -5.216842 -0.091368 0.999158 2.55 -0.0 20.0 -3.619368 0.0 0.0 0.0 -0.0 24.0 -2.052105 0.0 0.0 0.0 -0.0 20.0 -3.382106 0.517263 0.756737 0.0 -0.0 0.0 -5.174105 -0.084 0.313895 0.0 -0.0 20.0 -3.949473 0.0 0.0 0.0 -0.0 24.0 -2.475789 0.0 0.0 0.0 -0.0 20.0 -3.365158 0.537895 -0.128947 0.0 -0.0 0.0 -4.634737 -0.022105 -0.478947 -3.0 -0.0 20.0 -3.442379 0.0 0.0 0.0 -0.0 24.0 -2.388105 0.0 0.0 0.0 -0.0 20.0 -3.161053 0.469368 -1.201789 0.0 -0.0 0.0 -4.141052 -0.022105 -1.090526 -8.83 -0.0 20.0 -2.756526 0.0 0.0 0.0 -0.0 24.0 -1.741895 0.0 0.0 0.0 -0.0 20.0 3.187162 6.906949 -0.006912 -4.250746 -6.110909 -4.802295 12.721933 -0.05719 0.037029 -22.6759 -65.254463 -31.284575 26.475 -0.152725 0.000755 -25.989775 6.618918 -16.767708 26.015955 -0.145431 0.017254 -23.616888 23.831587 11.023303 2.489053 0.190105 3.120527 -21.860001 -0.0 -30.0 3.682737 0.0 0.0 10.0 -0.0 0.0 2.558316 0.0 0.0 10.0 -0.0 0.0 3.223684 0.508421 1.978421 0.0 -0.0 0.0 5.216842 -0.091368 0.999158 -2.55 -0.0 -20.0 3.619368 0.0 0.0 0.0 -0.0 -24.0 2.052105 0.0 0.0 0.0 -0.0 -20.0 3.382106 0.517263 0.756737 0.0 -0.0 0.0 5.174105 -0.084 0.313895 0.0 -0.0 -20.0 3.949473 0.0 0.0 0.0 -0.0 -24.0 2.475789 0.0 0.0 0.0 -0.0 -20.0 3.365158 0.537895 -0.128947 0.0 -0.0 0.0 4.634737 -0.022105 -0.478947 3.0 -0.0 -20.0 3.442379 0.0 0.0 0.0 -0.0 -24.0 2.388105 0.0 0.0 0.0 -0.0 -20.0 3.161053 0.469368 -1.201789 0.0 -0.0 0.0 4.141052 -0.022105 -1.090526 8.83 -0.0 -20.0 2.756526 0.0 0.0 0.0 -0.0 -24.0 1.741895 0.0 0.0 0.0 -0.0 -20.0
-23.586523 95.076714 33.233368 -114.283867 2.32509 -8.525283 -9.249407 -1.597482 -0.013945 -0.496226 -6.536668 1.782691 0.015658 -41.848946 -0.104548 -4.263929 15.90512 -0.879143 0.725574 -42.710815 -1.554626 -34.89769 8.704315 1.578055 9.259953 -1.583237 0.016458 10.41669 -0.740785 4.426259 0.003898 -41.872089 -0.026665 -27.856159 -0.59704 -0.935525 0.285638 -41.2272 -0.379011 31.256842 -2.164154 3.723077 -0.009384 14.306768 0.026081 -16.14879 1.931822 5.63473 0.000405 9.718025 0.006597 -4.067168 0.558877 1.449374 0.001754 10.119946 0.007433 -6.543596 1.170755 2.341968 0.000673 9.718506 0.003078 1.834249 -0.563921 -0.305576 0.001762 10.389094 0.016727 2.340452 -0.54264 -0.375696 -0.021848 9.467458 0.022533 36.848598 -7.984478 -8.664692 -3.204659 6.879609 -0.023322 22.15637 -2.137048 -4.724333 -12.772264 -0.038591 -0.064166 -6.408841 0.15922 74.900238 -26.514589 -0.000428 -0.012797 108.690186 -0.312224 56.135483 -26.013735 -0.058304 0.021614 -1.204239 -12.602166 -3.192944 -2.489053 0.190105 3.120527 21.860001 -0.0 30.0 -3.682737 0.0 0.0 -10.0 -0.0 0.0 -2.558316 0.0 0.0 -10.0 -0.0 0.0 -3.223684 0.508421 1.978421 0.0 -0.0 0.0 -5.216842 -0.091368 0.999158 2.55 -0.0 20.0 -3.619368 0.0 0.0 0.0 -0.0 24.0 -2.052105 0.0 0.0 0.0 -0.0 20.0 -3.382106 0.517263 0.756737 0.0 -0.0 0.0 -5.174105 -0.084 0.313895 0.0 -0.0 20.0 -3.949473 0.0 0.0 0.0 -0.0 24.0 -2.475789 0.0 0.0 0.0 -0.0 20.0 -3.365158 0.537895 -0.128947 0.0 -0.0 0.0 -4.634737 -0.022105 -0.478947 -3.0 -0.0 20.0 -3.442379 0.0 0.0 0.0 -0.0 24.0 -2.388105 0.0 0.0 0.0 -0.0 20.0 -3.161053 0.469368 -1.201789 0.0 -0.0 0.0 -4.141052 -0.022105 -1.090526 -8.83 -0.0 20.0 -2.756526 0.0 0.0 0.0 -0.0 24.0 -1.741895 0.0 0.0 0.0 -0.0 20.0 3.187391 6.906828 -0.008946 -4.264529 -6.146522 -4.794495 12.713524 -0.063309 0.040451 -22.646841 -65.235146 -31.229633 26.470688 -0.172956 0.001346 -25.946566 6.589041 -16.766785 26.017902 -0.161068 0.021931 -23.720409 23.819191 11.022569 2.489053 0.190105 3.120527 -21.860001 -0.0 -30.0 3.682737 0.0 0.0 10.0 -0.0 0.0 2.558316 0.0 0.0 10.0 -0.0 0.0 3.223684 0.508421 1.978421 0.0 -0.0 0.0 5.216842 -0.091368 0.999158 -2.55 -0.0 -20.0 3.619368 0.0 0.0 0.0 -0.0 -24.0 2.052105 0.0 0.0 0.0 -0.0 -20.0 3.382106 0.517263 0.756737 0.0 -0.0 0.0 5.174105 -0.084 0.313895 0.0 -0.0 -20.0 3.949473 0.0 0.0 0.0 -0.0 -24.0 2.475789 0.0 0.0 0.0 -0.0 -20.0 3.365158 0.537895 -0.128947 0.0 -0.0 0.0 4.634737 -0.022105 -0.478947 3.0 -0.0 -20.0 3.442379 0.0 0.0 0.0 -0.0 -24.0 2.388105 0.0 0.0 0.0 -0.0 -20.0 3.161053 0.469368 -1.201789 0.0 -0.0 0.0 4.141052 -0.022105 -1.090526 8.83 -0.0 -20.0 2.756526 0.0 0.0 0.0 -0.0 -24.0 1.741895 0.0 0.0 0.0 -0.0 -20.0
-23.575628 95.076157 33.241631 -114.285042 2.325496 -8.526685 -9.249375 -1.597771 -0.011693 -0.495281 -6.537232 1.78406 0.01442 -41.850658 -0.095869 -4.265257 15.906221 -0.880273 0.722871 -42.708042 -1.54684 -34.898182 8.704899 1.580471 9.260081 -1.582576 0.020317 10.419131 -0.74264 4.42628 0.000382 -41.871941 -0.022116 -27.859108 -0.595209 -0.933462 0.285153 -41.22707 -0.374436 31.259941 -2.161728 3.719118 -0.010909 14.306749 0.023554 -16.149115 1.931153 5.636035 0.000255 9.718114 0.006074 -4.06726 0.558747 1.449679 0.002101 10.119931 0.007192 -6.543719 1.170614 2.342467 0.001127 9.718504 0.003088 1.83427 -0.563909 -0.305536 0.001557 10.388994 0.016632 2.340734 -0.542617 -0.375684 -0.021357 9.467475 0.022866 36.848782 -7.98468 -8.663966 -3.203574 6.882649 -0.022212 22.156948 -2.136885 -4.722439 -12.77388 -0.035306 -0.060291 -6.410264 0.159987 74.898193 -26.515776 0.00023 -0.010786 108.690857 -0.312655 56.137882 -26.013607 -0.056896 0.019809 -1.206793 -12.604981 -3.190113 -2.489053 0.190105 3.120527 21.860001 -0.0 30.0 -3.682737 0.0 0.0 -10.0 -0.0 0.0 -2.558316 0.0 0.0 -10.0 -0.0 0.0 -3.223684 0.508421 1.978421 0.0 -0.0 0.0 -5.216842 -0.091368 0.999158 2.55 -0.0 20.0 -3.619368 0.0 0.0 0.0 -0.0 24.0 -2.052105 0.0 0.0 0.0 -0.0 20.0 -3.382106 0.517263 0.756737 0.0 -0.0 0.0 -5.174105 -0.084 0.313895 0.0 -0.0 20.0 -3.949473 0.0 0.0 0.0 -0.0 24.0 -2.475789 0.0 0.0 0.0 -0.0 20.0 -3.365158 0.537895 -0.128947 0.0 -0.0 0.0 -4.634737 -0.022105 -0.478947 -3.0 -0.0 20.0 -3.442379 0.0 0.0 0.0 -0.0 24.0 -2.388105 0.0 0.0 0.0 -0.0 20.0 -3.161053 0.469368 -1.201789 0.0 -0.0 0.0 -4.141052 -0.022105 -1.090526 -8.83 -0.0 20.0 -2.756526 0.0 0.0 0.0 -0.0 24.0 -1.741895 0.0 0.0 0.0 -0.0 20.0 3.187706 6.907428 -0.008863 -4.263784 -6.144358 -4.794294 12.717535 -0.060933 0.038223 -22.650229 -65.241707 -31.22253 26.473673 -0.162226 -0.000944 -25.947475 6.587508 -16.769873 26.013496 -0.152698 0.025949 -23.716045 23.81958 11.020003 2.489053 0.190105 3.120527 -21.860001 -0.0 -30.0 3.682737 0.0 0.0 10.0 -0.0 0.0 2.558316 0.0 0.0 10.0 -0.0 0.0 3.223684 0.508421 1.978421 0.0 -0.0 0.0 5.216842 -0.091368 0.999158 -2.55 -0.0 -20.0 3.619368 0.0 0.0 0.0 -0.0 -24.0 2.052105 0.0 0.0 0.0 -0.0 -20.0 3.382106 0.517263 0.756737 0.0 -0.0 0.0 5.174105 -0.084 0.313895 0.0 -0.0 -20.0 3.949473 0.0 0.0 0.0 -0.0 -24.0 2.475789 0.0 0.0 0.0 -0.0 -20.0 3.365158 0.537895 -0.128947 0.0 -0.0 0.0 4.634737 -0.022105 -0.478947 3.0 -0.0 -20.0 3.442379 0.0 0.0 0.0 -0.0 -24.0 2.388105 0.0 0.0 0.0 -0.0 -20.0 3.161053 0.469368 -1.201789 0.0 -0.0 0.0 4.141052 -0.022105 -1.090526 8.83 -0.0 -20.0 2.756526 0.0 0.0 0.0 -0.0 -24.0 1.741895 0.0 0.0 0.0 -0.0 -20.0
-23.56377 95.076439 33.249195 -114.353195 2.313263 -8.522422 -9.251304 -1.597072 -0.001907 -0.426718 -6.542612 1.781428 0.010004 -41.851261 -0.093858 -4.285872 15.903708 -0.885906 0.719672 -42.709087 -1.544328 -34.883236 8.696391 1.578778 9.256953 -1.583273 0.011751 10.485194 -0.746653 4.426206 -0.003099 -41.872021 -0.021875 -27.865173 -0.599138 -0.945099 0.285625 -41.227818 -0.373641 31.260567 -2.161083 3.7243 -0.010095 14.306729 0.021955 -16.116697 1.932827 5.627745 0.000376 9.718079 0.005995 -4.058912 0.558834 1.447615 0.002549 10.119922 0.007497 -6.531008 1.169895 2.339332 0.001381 9.718524 0.00371 1.834848 -0.564142 -0.305838 0.001017 10.389009 0.017105 2.352324 -0.542272 -0.377512 -0.023235 9.467413 0.022942 36.853321 -7.985237 -8.670688 -3.203178 6.882292 -0.021512 22.180498 -2.163234 -4.740448 -12.772473 -0.036178 -0.061125 -6.426017 0.171357 74.906761 -26.515779 -0.002085 -0.013641 108.689186 -0.310438 56.143257 -26.013416 -0.056027 0.018057 -1.198949 -12.615397 -3.18486 -2.489053 0.190105 3.120527 21.860001 -0.0 30.0 -3.682737 0.0 0.0 -10.0 -0.0 0.0 -2.558316 0.0 0.0 -10.0 -0.0 0.0 -3.223684 0.508421 1.978421 0.0 -0.0 0.0 -5.216842 -0.091368 0.999158 2.55 -0.0 20.0 -3.619368 0.0 0.0 0.0 -0.0 24.0 -2.052105 0.0 0.0 0.0 -0.0 20.0 -3.382106 0.517263 0.756737 0.0 -0.0 0.0 -5.174105 -0.084 0.313895 0.0 -0.0 20.0 -3.949473 0.0 0.0 0.0 -0.0 24.0 -2.475789 0.0 0.0 0.0 -0.0 20.0 -3.365158 0.537895 -0.128947 0.0 -0.0 0.0 -4.634737 -0.022105 -0.478947 -3.0 -0.0 20.0 -3.442379 0.0 0.0 0.0 -0.0 24.0 -2.388105 0.0 0.0 0.0 -0.0 20.0 -3.161053 0.469368 -1.201789 0.0 -0.0 0.0 -4.141052 -0.022105 -1.090526 -8.83 -0.0 20.0 -2.756526 0.0 0.0 0.0 -0.0 24.0 -1.741895 0.0 0.0 0.0 -0.0 20.0 3.188117 6.907344 -0.009953 -4.255162 -6.158972 -4.77936 12.720272 -0.056337 0.035932 -22.597641 -65.214043 -31.26372 26.474031 -0.156811 0.002228 -25.955135 6.593011 -16.749388 26.014433 -0.151962 0.024302 -23.793224 23.788721 11.054918 2.489053 0.190105 3.120527 -21.860001 -0.0 -30.0 3.682737 0.0 0.0 10.0 -0.0 0.0 2.558316 0.0 0.0 10.0 -0.0 0.0 3.223684 0.508421 1.978421 0.0 -0.0 0.0 5.216842 -0.091368 0.999158 -2.55 -0.0 -20.0 3.619368 0.0 0.0 0.0 -0.0 -24.0 2.052105 0.0 0.0 0.0 -0.0 -20.0 3.382106 0.517263 0.756737 0.0 -0.0 0.0 5.174105 -0.084 0.313895 0.0 -0.0 -20.0 3.949473 0.0 0.0 0.0 -0.0 -24.0 2.475789 0.0 0.0 0.0 -0.0 -20.0 3.365158 0.537895 -0.128947 0.0 -0.0 0.0 4.634737 -0.022105 -0.478947 3.0 -0.0 -20.0 3.442379 0.0 0.0 0.0 -0.0 -24.0 2.388105 0.0 0.0 0.0 -0.0 -20.0 3.161053 0.469368 -1.201789 0.0 -0.0 0.0 4.141052 -0.022105 -1.090526 8.83 -0.0 -20.0 2.756526 0.0 0.0 0.0 -0.0 -24.0 1.741895 0.0 0.0 0.0 -0.0 -20.0
